<svg xmlns="http://www.w3.org/2000/svg" xmlns:xlink="http://www.w3.org/1999/xlink" version="1.1" x="0px" y="0px" viewBox="0 0 100 125" enable-background="new 0 0 100 100" xml:space="preserve"><g fill="#49a9c6"><path d="M23.386,35.072c-1.199,1.211-1.623,2.277-1.627,3.259c-0.029,1.525,1.187,3.481,4.141,5.368   c2.45,1.571,5.997,3.013,10.463,4.101h0.374c-1.097-4.512-2.604-8.036-4.25-10.443c-1.94-2.838-3.957-4.014-5.594-3.995   c-1.104,0.004-2.255,0.467-3.505,1.71"/><path d="M44.891,38.401c-1.15,2.063-2.245,5.202-3.195,9.399h0.473c4.003-0.931,7.019-1.992,9.016-3.106   c2.475-1.393,3.204-2.635,3.191-3.664c0.017-0.878-0.559-2.167-2.109-3.709c-1.544-1.553-2.831-2.127-3.711-2.111   C47.526,35.197,46.283,35.926,44.891,38.401z"/><g><path d="M24.283,46.226c-3.347-2.142-5.497-4.795-5.526-7.895c-0.004-1.938,0.913-3.798,2.506-5.378h-0.001    c0.001,0,0.001-0.001,0.002-0.001c0,0,0,0,0.001,0c1.643-1.657,3.599-2.595,5.628-2.589c3.087,0.019,5.846,2.042,8.07,5.304    c0.955,1.402,1.828,3.07,2.612,4.965V12.625h-24.95V47.8h14.523C26.105,47.303,25.147,46.777,24.283,46.226z"/><path d="M30.755,70.085c-0.019,2.059,0.513,3.495,1.093,3.979c0.61,0.56,0.648,1.509,0.089,2.119    c-0.297,0.321-0.7,0.483-1.104,0.483c-0.363,0-0.727-0.131-1.015-0.396c-1.583-1.507-2.044-3.729-2.063-6.186    c0.063-5.846,2.883-13.835,7.774-18.885H12.625v35.175h24.95V53.357C33.481,57.702,30.691,65.214,30.755,70.085z"/><path d="M42.268,36.946c1.569-2.86,3.662-4.724,6.287-4.736c2.101,0.015,4.005,1.17,5.833,2.989    c1.819,1.826,2.972,3.73,2.989,5.831c-0.015,2.626-1.878,4.716-4.736,6.287c-0.299,0.165-0.618,0.324-0.943,0.483h34.678V12.625    h-45.4v27.107C41.384,38.704,41.813,37.769,42.268,36.946z"/><path d="M51.739,66.811c0.289,0.776-0.106,1.64-0.884,1.929c-0.173,0.064-0.35,0.095-0.523,0.095    c-0.608,0-1.181-0.373-1.405-0.977c-3.106-8.321-6.001-12.534-7.952-14.632v33.149h45.4V51.2H43.184    C45.49,53.683,48.564,58.285,51.739,66.811z"/></g></g></svg>